<?xml version="1.0" encoding="UTF-8" standalone="no"?><svg xmlns="http://www.w3.org/2000/svg" xmlns:xlink="http://www.w3.org/1999/xlink" viewBox="0 0 702 110.076"><path transform="translate(-149 -194.705)" fill="#fff" d="M698.892 195.706l-35.53 108.074h38.97l13.65-41.686h73.213L775.54 303.78h38.948L850 195.706h-38.93l-13.672 41.69h-73.213l13.67-41.69M656.51 245.608c-1.982-2.667-4.05-4.72-6.824-6.12-2.747-1.4-6.096-2.084-9.583-2.084h-85.45l4.786-14.97h112.178l8.88-26.73H556.09c-3.487 0-7.5.706-10.992 2.118-4.02 1.367-7.465 3.418-10.85 6.153-2.837 2.666-6.162 5.47-8.306 8.887-2.718 3.418-4.716 7.45-6.083 10.943l-3.386 10.222c-.797 4.06-1.47 7.543-1.4 10.963.614 3.418 1.367 6.765 2.762 8.887 1.954 2.735 4.06 4.782 6.81 6.153 2.733 1.392 6.11 2.666 9.57 2.666h85.45l-4.787 14.355H502.7l-8.84 26.73h124.367c3.487 0 7.52-.703 11.008-2.118 4.03-1.367 7.45-3.418 10.853-6.153 2.818-2.667 6.167-5.47 8.288-8.888 2.733-3.418 4.733-7.45 6.082-10.944l3.41-10.22c1.35-4.062 1.444-7.538 1.375-10.964-.613-3.417-1.34-6.74-2.734-8.886zM503.384 212.18c-.614-3.42-1.367-6.153-3.34-8.277-1.41-2.697-3.496-4.712-6.23-6.098-2.734-1.41-6.083-2.1-9.57-2.1H386.56c-3.488 0-7.52.706-11.008 2.118-4.032 1.367-7.45 3.418-10.868 6.153-2.823 2.666-6.152 5.47-8.3 8.887-2.707 3.418-4.753 7.45-6.084 10.943l-26.018 79.974h38.965l26.66-81.347h73.822l-8.14 23.857H403.65l-8.203 25.294h51.93l-10.3 32.195h38.35l26.65-80.732c1.31-4.033 1.385-7.45 1.31-10.87zM333.243 212.863c-.074-3.418-1.352-6.22-2.74-8.887-1.436-2.735-3.504-4.786-6.827-6.153-2.742-1.412-5.546-2.117-9.566-2.117H189.684l-8.887 26.728H293.52l-17.774 54.62H163.024l-8.887 26.727h125.028c3.418 0 6.905-.72 10.938-2.116 3.503-1.983 7.52-4.035 10.936-6.748 2.818-2.14 6.154-5.49 8.862-8.907 2.146-3.42 4.167-6.84 5.495-10.33l16.476-51.872c1.365-3.494 1.996-7.527 1.37-10.945z M225.23 237.396h-66.378L150 262.094h66.956"/></svg>
