<?xml version="1.0" encoding="UTF-8" standalone="no"?><svg xmlns="http://www.w3.org/2000/svg" viewBox="0 0 678.92344 99.999996" height="100" width="678.923"><path fill="#FFFFFF" d="M8 38.436L0 61.74h57.31l8-23.304H8z M2.453 100l8.523-24.87h109.39l17.392-50.26H28.366L36.888 0h121.218c3.478 0 6.55.696 9.217 2.087 2.783 1.39 4.927 3.304 6.435 5.74 1.623 2.318 2.608 5.1 2.956 8.347.348 3.13-.116 6.493-1.39 10.087l-16.35 47.48c-1.158 3.477-3.013 6.782-5.564 9.912-2.435 3.13-5.275 5.913-8.522 8.348-3.246 2.435-6.725 4.406-10.435 5.913-3.71 1.39-7.304 2.087-10.782 2.087zM223.71 46.783h71.65l7.653-21.913H231.36l-7.65 21.913zm-8 23.304L205.447 100h-37.913l25.39-73.74q1.914-5.39 5.566-10.086 3.827-4.87 8.523-8.348 4.87-3.652 10.26-5.74Q222.84 0 228.232 0h94.957q5.217 0 9.217 2.087 4 1.913 6.435 5.39 2.434 3.306 2.956 8 .52 4.523-1.218 9.74L314.838 100H277.1l10.26-29.913h-71.65zM455.225 61.74h-83.13q-5.392 0-9.566-2.088-4-2.087-6.435-5.565-2.26-3.652-2.783-8.348-.348-4.87 1.565-10.262l3.13-9.217q1.914-5.39 5.566-10.086 3.826-4.87 8.522-8.348 4.87-3.652 10.26-5.74Q387.922 0 393.313 0h120.87l-8.522 24.87H396.27l-4.697 13.565h83.13q5.392 0 9.392 2.087 4.174 2.087 6.434 5.565 2.434 3.478 2.782 8.348.522 4.695-1.39 10.087l-3.132 9.217q-1.913 5.39-5.74 10.26-3.65 4.696-8.52 8.348-4.696 3.478-10.26 5.565Q458.876 100 453.485 100h-120.87l8.522-24.87h109.39l4.697-13.39zM641.184 0h37.74l-34.435 100h-37.74l12.347-35.826H547.62L535.27 100H497.36L531.793 0h37.913L555.62 40.87h71.477L641.184 0z"/></svg>
